/* XPM */
static char*bottleneck1[]={
"16 16 5 1",
"d c #ffa858",
"a c #c05800",
"c c #00ffff",
"b c #ff8000",
". c None",
"................",
"....abcccbd.....",
"....abcccbd.....",
"....abcccbd.....",
"....abcccbd.....",
"....abcccbd.....",
"...abcccccbd....",
"...abcccccbd....",
"..abcccccccbd...",
".abcccccccccbd..",
".abcccccccccbd..",
".abcccccccccbd..",
".abcccccccccbd..",
".abcccccccccbd..",
".abcccccccccbd..",
"................"};
