/* XPM */
static char*csv1[]={
"16 16 8 1",
"b c None",
"c c #808080",
"d c #c05800",
"e c #00ffff",
". c None",
"f c #ff8000",
"a c #303030",
"# c #585858",
"................",
".......#######..",
"......aabbbbb#..",
".....ababbbbb#..",
"....abbabbbbb#..",
"...abbbabbbbb#..",
"..aaaaaabbbbb#..",
".ca##dddeeebb#..",
".cabbfffeeebb#..",
".cabbfffeeebb#..",
".cabbeeefffbb#..",
".cabbeeefffbb#..",
".cabbeeefffbb#..",
".cabbbbbbbbbb#..",
".caaaaaaaaaaa#..",
".cccccccccccc..."};
