/* XPM */
static char*disk1[]={
"16 16 8 1",
". c None",
"b c #808080",
"f c #ffa858",
"c c #c05800",
"d c #ff8000",
"# c #303030",
"e c #800000",
"a c #585858",
"................",
"....#aaaaab.....",
"...#cddddddb....",
"..#cccddddddb...",
"..##cccddddbb...",
"..#e####aaafb...",
"..#eeeccddffb...",
"..#eeeccddffb...",
"..#eeeccddffb...",
"..#eeeccddffb...",
"..#eeeccddffb...",
"..#eeeccddffb...",
"..#eeeccddffb...",
"..#eeeccddffa...",
"...#eeccddfa....",
"....######a....."};
