/* XPM */
static char * error1[] = {
"16 16 6 1",
" 	c None",
".	c red",
"X	c #303030",
"o	c #a0a0a0",
"O	c #585858",
"+	c black",
"         .  .. .",
"          .    .",
"             X  ",
"       ...  XX .",
"         o XX  .",
"   oooooXOo     ",
"  OOOOoooXOo  . ",
" OOOOOOOooX .  .",
"XOOOOOOOOoo .   ",
"XOOOOOOOOoo .   ",
"XOOOOOOOOOo     ",
"XXOOOOOOOOo     ",
"+XOOOOOOOOo     ",
" XXOOOOOOO      ",
"  XXXOOOO       ",
"   +XXXX        "};
