/* XPM */
static char*event2[]={
"16 16 3 1",
"b c #000000",
". c None",
"# c #585858",
"................",
".......#........",
"......bb#.......",
".....bbbb#......",
".....bbbb#......",
".....bbbb#......",
"......bbb.......",
"......bbb.......",
".......b........",
".......b........",
"................",
".......#........",
"......bb#.......",
"......bb#.......",
".......b........",
"................"};
