/* XPM */
static char*filedata1[]={
"16 16 8 1",
"d c #ffa858",
"f c #c05800",
"b c #00ffff",
". c None",
"c c #ff8000",
"# c #303030",
"e c #008080",
"a c #c0ffff",
".......########.",
"......##abbccc#.",
".....#c#abbccc#.",
"....#cc#abbccc#.",
"...#bbb#dccbbb#.",
"..#cbbb#dccbbb#.",
".#######dccbbb#.",
".#eeefffbbbccc#.",
".#bbbcccbbbccc#.",
".#bbbcccbbbccc#.",
".#cccbbbcccbbb#.",
".#cccbbbcccbbb#.",
".#cccbbbcccbbb#.",
".#bbbcccbbbccc#.",
".#bbbcccbbbccc#.",
".##############."};
