/* XPM */
static char*graph7[]={
"16 16 4 1",
"b c #808080",
"a c #a0a0a0",
"# c #c3c3c3",
". c None",
"................",
"................",
"...............#",
"...............a",
".............#.b",
"......#.....#a..",
"......a#....ab..",
"....#.ba..#.b...",
"...#a..b.#a.....",
"...ab....ab.....",
".#.b.....b......",
"#a..............",
"ab..............",
"b...............",
"................",
"................"};
