/* XPM */
static char*graph2[]={
"16 16 6 1",
"b c #808080",
". c None",
"# c #303030",
"d c #800000",
"c c #c00000",
"a c #ff0000",
"...#..#..#..#...",
"...#..#..#..#...",
"...#..#..#..#..a",
"bbbbbbbbbbbbbbac",
"...#..#..#..#acd",
"...#..a..#..acd.",
"bbbbbacabbbacd..",
"...#acdca#acd...",
"...acd#dcacd#...",
"bbacdbbbdcdbbbbb",
".acd..#..d..#...",
"acd#..#..#..#...",
"cdbbbbbbbbbbbbbb",
"d..#..#..#..#...",
"...#..#..#..#...",
"...#..#..#..#..."};
