/* XPM */
static char*graph4[]={
"16 16 8 1",
"c c #808080",
"e c #000000",
". c None",
"# c #303030",
"f c #800000",
"d c #c00000",
"a c #dcdcdc",
"b c #ff0000",
"...#..#..#..#...",
"...#..#..#..#...",
"...#a.#a.#a.#a.b",
"ccccccccccccccbd",
"..e#.e#.e#.e#bdf",
"...#a.ba.#a.bdf.",
"cccccbdbcccbdf..",
"..e#bdfdb#bdf...",
"...bdf#fdbdf#a..",
"ccbdfcccfdfccccc",
".bdf.e#.ef.e#...",
"bdf#a.#a.#a.#a..",
"dfcccccccccccccc",
"f.e#.e#.e#.e#...",
"...#..#..#..#...",
"...#..#..#..#..."};
