/* XPM */
static char*graph10[]={
"16 16 10 1",
"c c #ffa858",
"b c #c05800",
"h c #00ffff",
"a c #000000",
"d c #ff8000",
"e c #800000",
". c None",
"g c #c0ffff",
"# c #585858",
"f c #00c0c0",
"................",
".#############..",
".abcccccccccc#..",
".abdddddddddc#..",
".abdddddddddc#..",
".abdddcdddddc#..",
".abddbecdddbe#..",
".abdbeeecdbee#..",
".abbeefeebeeg#..",
".abeeghfeeegg#..",
".aeeghhhfeghg#..",
".aeghhhhhghhg#..",
".afhhhhhhhhhg#..",
".affffffffffg#..",
".aaaaaaaaaaaaa..",
"................"};
