/* XPM */
static char*graph8[]={
"16 16 7 1",
"# c #808080",
". c None",
"c c #303030",
"e c #800000",
"d c #c00000",
"a c #585858",
"b c #ff0000",
"...#............",
"..#a............",
".#aa#####......b",
"caaaaaaaa.....bd",
".caaccccc....bde",
"..cc..b.....bde.",
"...c.bdb...bde..",
"....bdedb.bde...",
"...bde.edbde....",
"..bde...ede.....",
".bde.....e......",
"bde.............",
"de..............",
"e...............",
"................",
"................"};
