/* XPM */
static char * habitat_flower_16[] = {
"16 16 146 2",
"  	c None",
". 	c #FFFFFF",
"+ 	c #F0F0C4",
"@ 	c #DADA65",
"# 	c #E5E584",
"$ 	c #DCDC5F",
"% 	c #E3E482",
"& 	c #D0D014",
"* 	c #F4F4C2",
"= 	c #DAD934",
"- 	c #D8D82A",
"; 	c #EEEEA4",
"> 	c #D3D316",
", 	c #D9D85D",
"' 	c #F8F8EB",
") 	c #BBBB14",
"! 	c #D0CF49",
"~ 	c #FEFEFD",
"{ 	c #F3F3BF",
"] 	c #F8F8D9",
"^ 	c #F9F9E7",
"/ 	c #BCBB16",
"( 	c #ABAB17",
"_ 	c #F2F2E2",
": 	c #E9EAD0",
"< 	c #9B9D1A",
"[ 	c #CFCF85",
"} 	c #C8C855",
"| 	c #C8C815",
"1 	c #D8D723",
"2 	c #FCFCF2",
"3 	c #EFEFBA",
"4 	c #E7E789",
"5 	c #FBFBEA",
"6 	c #C1C266",
"7 	c #90921C",
"8 	c #BDBF88",
"9 	c #DDDEC6",
"0 	c #808423",
"a 	c #ADAF62",
"b 	c #C0C03E",
"c 	c #EEEEB0",
"d 	c #DDDD68",
"e 	c #D5D415",
"f 	c #CCCB21",
"g 	c #D5D58B",
"h 	c #EEEEDC",
"i 	c #8C8F3D",
"j 	c #777C34",
"k 	c #D3D5C0",
"l 	c #7F8445",
"m 	c #7F8334",
"n 	c #D2D3A9",
"o 	c #F5F5CF",
"p 	c #D7D620",
"q 	c #C2C114",
"r 	c #A3A417",
"s 	c #8E902B",
"t 	c #A3A774",
"u 	c #878B57",
"v 	c #9A9D77",
"w 	c #9DA078",
"x 	c #CCCEB6",
"y 	c #BDBF8F",
"z 	c #BDBE6F",
"A 	c #D1D171",
"B 	c #ECECA4",
"C 	c #FCFCF3",
"D 	c #F7F7D5",
"E 	c #D0D055",
"F 	c #A4A520",
"G 	c #898C25",
"H 	c #898D4E",
"I 	c #9DA077",
"J 	c #9A9E7A",
"K 	c #727841",
"L 	c #83884D",
"M 	c #8B8E3B",
"N 	c #96981B",
"O 	c #B4B414",
"P 	c #D2D116",
"Q 	c #D4D323",
"R 	c #EAEAA7",
"S 	c #D0D1B3",
"T 	c #868B51",
"U 	c #A3A77E",
"V 	c #A0A479",
"W 	c #6C7220",
"X 	c #A0A253",
"Y 	c #DCDDAF",
"Z 	c #F1F1D1",
"` 	c #F0EFAF",
" .	c #E6E688",
"..	c #DCDC73",
"+.	c #F3F3DA",
"@.	c #B7B858",
"#.	c #8C8F28",
"$.	c #989B56",
"%.	c #A6AA74",
"&.	c #F6F7F2",
"*.	c #949643",
"=.	c #93951C",
"-.	c #ABAC15",
";.	c #D9D862",
">.	c #FCFCF1",
",.	c #E8E87F",
"'.	c #C9C91A",
").	c #B2B215",
"!.	c #CECE89",
"~.	c #94961E",
"{.	c #BCBE7B",
"].	c #F4F4E7",
"^.	c #BABB44",
"/.	c #BFBF14",
"(.	c #D4D316",
"_.	c #D9D93D",
":.	c #EFF0C7",
"<.	c #CBCB28",
"[.	c #CFCF14",
"}.	c #D5D51B",
"|.	c #EBEBA8",
"1.	c #D0D05B",
"2.	c #B1B214",
"3.	c #D9D996",
"4.	c #FDFDF9",
"5.	c #E9E88E",
"6.	c #D7D62B",
"7.	c #D2D339",
"8.	c #FAFAEB",
"9.	c #BBBC22",
"0.	c #BEBF0D",
"a.	c #CFD036",
"b.	c #F4F4CC",
"c.	c #F7F7D8",
"d.	c #D5D416",
"e.	c #D0D015",
"f.	c #F4F4D2",
"g.	c #DCDD97",
"h.	c #E3E3A2",
"i.	c #FDFDFA",
"j.	c #E0E17A",
"k.	c #CECD13",
"l.	c #DADA45",
"m.	c #D0D253",
"n.	c #C9CA2D",
"o.	c #F4F4D3",
". . . + @ . . . # $ . . . . . . ",
". . . % & * . . = - . . . . . . ",
". . . ; > , . ' ) ! ~ { ] . . . ",
". . . ^ / ( _ : < [ } | 1 2 . . ",
"3 4 5 . 6 7 8 9 0 a < b c . . . ",
"d e f g h i j k l m n ~ . . . . ",
"o p q r s t u v w x y z A B C . ",
". D E F G H I J K L M N O P Q R ",
". . . . . S T U V W X Y Z `  ...",
". . . +.@.#.$.%.&.*.=.-.;.2 . . ",
". >.,.'.).!.~.{.. ].^./.(._.2 . ",
":.<.[.}.|.1.2.3.. . 4.5.6.7.8.. ",
"9.0.a.b.c.d.e.f.. . . . . . . . ",
"g.h.i.. j.k.l.. . . . . . . . . ",
". . . . m.n.o.. . . . . . . . . ",
". . . . . . . . . . . . . . . . "};
