/* XPM */
static char*homedata2[]={
"16 16 6 1",
"d c #00ffff",
"# c #000000",
". c None",
"c c #ff8000",
"b c #303030",
"a c #585858",
"..#a..bbbb......",
"..#abbaaaabb....",
"..#baaaaaaaabb..",
"bbbbbbbbbbbbbbbb",
".bcccdddcccdddb.",
".bcccdddcccdddb.",
".bcccdddcccdddb.",
".bdddcccdddcccb.",
".bdddcccdddcccb.",
".bdddcccdddcccb.",
".bcccdddcccdddb.",
".bcccdddcccdddb.",
".bcccdddcccdddb.",
".bdddcccdddcccb.",
".bdddcccdddcccb.",
".bbbbbbbbbbbbbb."};
