/* XPM */
static char*jobs1[]={
"16 16 7 1",
"f c #c05800",
"a c #000000",
"d c #ff8000",
"e c #008080",
". c None",
"b c #c0ffff",
"c c #00c0c0",
"................",
".....aaaaa......",
"....abbcbba.....",
"...abcbcbcba....",
"..abdcbbbcbba...",
".abcedbbbdccba..",
".abbbedbdebbba..",
".accbbefebbcca..",
".abbbbbebbbbba..",
".abccbbbbbccba..",
"..abbcbbbcbba...",
"...abcbcbcba....",
"....abbcbba.....",
".....aaaaa......",
"................",
"................"};
