/* XPM */
static char*lesswidget2[]={
"16 16 8 1",
"c c #808080",
"e c #ffa858",
"# c #c05800",
"d c #000000",
"a c #ff8000",
"f c #303030",
"b c #800000",
". c #c0ffff",
".........#a.....",
"........##aaaaa.",
".......b######a.",
"........b##bbbb.",
".........b#.....",
"ccccccc...b.....",
"d#eeeef.cccc.ccc",
"d#aaaef.d..f.d..",
"d#aaaef.d..f.d..",
"d####ef.dfff.dff",
"dffffff.........",
"d#eeeef.cccc.ccc",
"d#aaaef.d..f.d..",
"d#aaaef.d..f.d..",
"d####ef.dfff.dff",
"ddddddd........."};
