/* XPM */
static char*morewidget2[]={
"16 16 10 1",
"c c #808080",
"e c #ffa858",
"# c #c05800",
"h c #00ffff",
"d c #000000",
"a c #ff8000",
"f c #303030",
"b c #800000",
". c #c0ffff",
"g c #00c0c0",
"...........#a...",
".......aaaa##a..",
".......#######a.",
".......bbbbb##..",
"...........b#...",
"cccccccccccccccc",
"d#eeeefg...fg..c",
"d#aaaefghh.fgh.c",
"d#aaaefghh.fgh.c",
"d####efggg.fgg.c",
"dffffffffffffffc",
"d#eeeefg...fg..c",
"d#aaaefghh.fgh.c",
"d#aaaefghh.fgh.c",
"d####efggg.fgg.c",
"dddddddddddddddc"};
