/* XPM */
static char*morewidget1[]={
"16 16 10 1",
"g c #c05800",
"a c #000000",
"e c #ff8000",
"f c #004040",
"h c #800000",
"c c #008080",
". c None",
"b c #c0ffff",
"# c #585858",
"d c #00c0c0",
"................",
".#############..",
".abbbbbbbbbbb#..",
".abcdbbbbbbbb#..",
".abccbbbbebbb#..",
".abfcbbbbgebb#..",
".abfceeeeggeb#..",
".abfcggggggge#..",
".abfchhhhhggb#..",
".abfcbbbbhgbb#..",
".abfcbbbbhbbb#..",
".abfcbbbbbbbb#..",
".abbbbbbbbbbb#..",
".abbbbbbbbbbb#..",
".aaaaaaaaaaaaa..",
"................"};
