/* XPM */
static char*net1[]={
"16 16 6 1",
". c None",
"b c #ff00ff",
"d c #00ffff",
"c c #ff8000",
"# c #004040",
"a c #008080",
"................",
"....#a..........",
"....#a..........",
"....#a..........",
"....#a..........",
"....#a....bb....",
"...c#ac..bbbb...",
".aaaaaaaaaaaaad.",
".############aa.",
"...cccc..b#ab...",
"....cc....#a....",
"..........#a....",
"..........#a....",
"..........#a....",
"..........#a....",
"................"};
