/* XPM */
static char*netdata4[]={
"16 16 6 1",
"# c #808080",
"c c #00ffff",
". c None",
"b c #ff8000",
"a c #303030",
"d c #585858",
"................",
"..############..",
".abbbcccbbbccc#.",
".abbbcccbbbccc#.",
".abbbcccbbbccc#.",
".acccbbbcccbbb#.",
".acccbbbcccbbb#.",
".acccbbbcccbbb#.",
".abbbccadbbccc#.",
".abbbccadbbccc#.",
"..aaaaaadaaaaa..",
".......ad.......",
".......ad.......",
".ddddddaddddddd.",
".aaaaaaadaaaaaa.",
"................"};
