/* XPM */
static char*netdata2[]={
"16 16 6 1",
"# c #808080",
"c c #00ffff",
". c None",
"d c #ff8000",
"b c #303030",
"a c #585858",
"..#############.",
".aaaaaaaaaaaaa##",
"bacccdddcccddda#",
"bacccdddcccddda#",
"badddcccdddccca#",
"badddcccdddccca#",
"badddcccdddccca#",
"bacccdddcccddda#",
"bacccdddcccddda#",
"bacccddba#cddda#",
"baaaaaaba#aaaaa.",
".bbbbbbba#bbbb..",
".......ba#......",
"#######ba#######",
"aaaaaaabaaaaaaaa",
"bbbbbbbbbbbbbbbb"};
