/* XPM */
static char*netdata1[]={
"16 16 6 1",
"# c #808080",
"d c #a0a0a0",
"b c #00ffff",
". c None",
"c c #ff8000",
"a c #303030",
"..#############.",
".abbbcccbbbccc#.",
".abbbcccbbbccc#.",
".abbbcccbbbccc#.",
".acccbbbcccbbb#.",
".acccbbbcccbbb#.",
".acccbbbcccbbb#.",
".abbbcccbbbccc#.",
".abbbcccbbbccc#.",
".abbbccadbbccc#.",
".acccbbadccbbb#.",
".acccbbadccbbb#.",
".aaaaaaadaaaaa..",
".......ad.......",
"#######ad#######",
"aaaaaaaaaaaaaaaa"};
