/* XPM */
static char*netdata5[]={
"16 16 7 1",
"a c #afb49f",
"# c #808080",
"d c #00ffff",
". c None",
"e c #ff8000",
"c c #303030",
"b c #585858",
"..############a.",
".abbbbbbbbbbbb#a",
"acbddeeedddeeb#a",
"acbddeeedddeeb#a",
"acbeedddeeeddb#a",
"acbeedddeeeddb#a",
"acbeedddeeeddb#a",
"acbddeeedddeeb#a",
"acbddeeedddeeb#a",
"acbddeecb#deeb#a",
"acbbbbbcb#bbbbb.",
".cccccccb#cccc..",
".......cb#......",
"a######cb######a",
"abbbbbbcbbbbbbba",
"acccccccccccccca"};
