/* XPM */
static char*quality1[]={
"16 16 5 1",
"b c #808080",
"a c #000000",
"d c #ff8000",
". c None",
"c c #dcdcdc",
"................",
".....aaaaa......",
".baaacdcdcaaab..",
".bbaacdddcaabb..",
".bbbacdcdcabbb..",
".bbaaacccaaabb..",
".bbaaacccaaabb..",
".bbbaacccaabbb..",
".bbbaaacaaabbb..",
".bbbbaacaabbbb..",
".bbbbbacabbbbb..",
".bbbbbbabbbbbb..",
".bbbbbbbbbbbbb..",
".bbbbbbabbbbbb..",
".bbbbbbbbbbbbb..",
"................"};
