/* XPM */
static char*raw1[]={
"16 16 8 1",
"b c #ffa858",
"g c #c05800",
"d c #00ffff",
"e c #000000",
"f c #ff8000",
". c None",
"a c #c0ffff",
"c c #00c0c0",
"................",
"................",
"..aaaaaabbbbbb..",
"..cddeddffeefb..",
"..cddeddfeffeb..",
"..cddeddfeffeb..",
"..cddeddffeefb..",
"..cdddddfffffb..",
"..gfffffddddda..",
"..gfeeffdddeda..",
"..geffefdddeda..",
"..geffefdddeda..",
"..gfeeffdddeda..",
"..ggggggccccca..",
"................",
"................"};
