/* XPM */
static char*rep3[]={
"16 16 10 1",
". c None",
"# c #ff00ff",
"c c #c05800",
"f c #00ffff",
"b c #ff8000",
"a c #ffc0ff",
"d c #800000",
"h c #008080",
"e c #c000c0",
"g c #00c0c0",
".#.#.a..........",
"#.#b#.a.........",
".#cb.a..........",
"#ccbbbbbbb......",
"dcccccccccb.....",
"#dccddddccb.....",
".#dc.#.dcb......",
"e.#d#..dcb..f.f.",
".e.#..dcb..gbg.f",
"......dcb.g.cbg.",
".....dcbbbbbccbg",
".....dcccccccccc",
"......dddddddccg",
"..........h.dcg.",
".........h.hdh.g",
"..........h.h.g."};
