/* XPM */
static char*rep4[]={
"16 16 8 1",
"a c None",
"c c #ff00ff",
"e c #c05800",
"# c #00ffff",
"d c #ff8000",
"b c #ffc0ff",
"f c #800000",
". c #00c0c0",
"..#aaaaaaaaaabcc",
"..#daaaaaaaaabcc",
"..edaaaaaaaaabcc",
".eedddddddaaabcc",
"feeeeeeeeedaabcc",
".feeffffeedaabcc",
"..feaaafedaaabcc",
"..#faaafedaaabcc",
"..#aaafedaaadbcc",
"..#aaafedaaaedcc",
"..#aafedddddeedc",
"..#aafeeeeeeeeee",
"..#aaafffffffeec",
"..#aaaaaaaaafecc",
"..#aaaaaaaaafbcc",
"..#aaaaaaaaaabcc"};
