/* XPM */
static char*route2[]={
"16 16 5 1",
"b c #c05800",
"# c #000000",
"c c #ff8000",
"a c #303030",
". c None",
"................",
".......##aaaaa..",
"........#bccca..",
".........#bcca..",
".........accca..",
".......accc#ba..",
".aaaaaaccc#.#a..",
".#cccccc##...a..",
".#cccccc#a...a..",
".######ccca.aa..",
".......#cccaca..",
"........##ccca..",
".........#ccca..",
"........#cccca..",
".......######a..",
"................"};
