/* XPM */
static char * spanstore1[] = {
"16 16 7 1",
" 	c None",
".	c #585858",
"X	c #303030",
"o	c black",
"O	c #808080",
"+	c #ff8000",
"@	c #00c0c0",
"    ..X         ",
"   XX.          ",
"   o.  OOOOOOOOO",
"   o. o++++@@@@@",
"   o. o++++@@@@@",
"   o. o++++@@@@@",
"  XX. oooooooooo",
"XXXX            ",
"ooX.   OOOOOOOOO",
"  oX. o++++@@@@@",
"   o. o++++@@@@@",
"   o. o++++@@@@@",
"   o. oooooooooo",
"   o.           ",
"   oXX          ",
"    oXX         "};
