/* XPM */
static char * sysgarlogo4_t[] = {
"31 38 648 2",
"  	c None",
". 	c #FFFFFF",
"+ 	c #FFFFFE",
"@ 	c #FEFFFE",
"# 	c #FDFFFF",
"$ 	c #FEFEFD",
"% 	c #FAFCFB",
"& 	c #D3E7E6",
"* 	c #6BBAB8",
"= 	c #19A9A8",
"- 	c #08BDBB",
"; 	c #52D2CF",
"> 	c #DCF5F3",
", 	c #FDFEFD",
"' 	c #FCFEFF",
") 	c #F5F8F9",
"! 	c #ACD0CF",
"~ 	c #2F9B99",
"{ 	c #09A5A5",
"] 	c #05BEBD",
"^ 	c #05CECD",
"/ 	c #0DC9C7",
"( 	c #9DE0DF",
"_ 	c #FEFEFC",
": 	c #FEFFFF",
"< 	c #FDFCFD",
"[ 	c #9BC3C3",
"} 	c #1F8D8C",
"| 	c #059FA0",
"1 	c #08B9B8",
"2 	c #24D4D4",
"3 	c #1DDDD9",
"4 	c #06BFBF",
"5 	c #7ECFCE",
"6 	c #FDFDFD",
"7 	c #FFFEFE",
"8 	c #FDFEFC",
"9 	c #FCFEFE",
"0 	c #FEFEFE",
"a 	c #FCFCFC",
"b 	c #C2D6D5",
"c 	c #198381",
"d 	c #049A9A",
"e 	c #08B0AF",
"f 	c #35D1CE",
"g 	c #97F2F1",
"h 	c #28D0D0",
"i 	c #09A8A5",
"j 	c #89C8C8",
"k 	c #E7F3F3",
"l 	c #ADD9D8",
"m 	c #81CBCA",
"n 	c #99DCDC",
"o 	c #BDE7E6",
"p 	c #E7F7F5",
"q 	c #FCFDFC",
"r 	c #FDFEFE",
"s 	c #E5EDED",
"t 	c #498F8D",
"u 	c #059494",
"v 	c #07AAA8",
"w 	c #18BFC2",
"x 	c #89EEEC",
"y 	c #67DDDF",
"z 	c #0AB1B3",
"A 	c #159594",
"B 	c #B3D5D5",
"C 	c #6DACA9",
"D 	c #119B99",
"E 	c #09B0B1",
"F 	c #09BCBA",
"G 	c #19C3C2",
"H 	c #4CCBC9",
"I 	c #AAE3E2",
"J 	c #EEFAF9",
"K 	c #9ABABA",
"L 	c #0E7D7E",
"M 	c #05A2A1",
"N 	c #0BB4B3",
"O 	c #41E2DF",
"P 	c #66E5E4",
"Q 	c #13B6B7",
"R 	c #079798",
"S 	c #3C8E8F",
"T 	c #DEEAE9",
"U 	c #FEFEFF",
"V 	c #146565",
"W 	c #058B8C",
"X 	c #06ABA8",
"Y 	c #07BDBB",
"Z 	c #04C7C8",
"` 	c #02CBCC",
" .	c #0EC8C6",
"..	c #5BD0CE",
"+.	c #D5F0F0",
"@.	c #E7EDED",
"#.	c #3D8281",
"$.	c #048F8E",
"%.	c #07AEAD",
"&.	c #14C8C9",
"*.	c #36E3E2",
"=.	c #12B6B5",
"-.	c #049B9B",
";.	c #0A7776",
">.	c #95B7B6",
",.	c #FCFDFD",
"'.	c #3A6161",
").	c #066A68",
"!.	c #058F90",
"~.	c #06A9AA",
"{.	c #06BAB9",
"].	c #04C6C8",
"^.	c #02CCCD",
"/.	c #05CBCB",
"(.	c #33C9C7",
"_.	c #BBE9E9",
":.	c #F9FCFC",
"<.	c #9EB9B9",
"[.	c #137C7B",
"}.	c #059F9F",
"|.	c #09B8B9",
"1.	c #13CBCB",
"2.	c #0CB3B3",
"3.	c #059D9D",
"4.	c #067E7D",
"5.	c #4E8384",
"6.	c #9BA5A5",
"7.	c #144948",
"8.	c #056A69",
"9.	c #068D8D",
"0.	c #05A4A3",
"a.	c #06B8B6",
"b.	c #05C5C3",
"c.	c #03CBCB",
"d.	c #03C9C9",
"e.	c #33C6C4",
"f.	c #B7E6E4",
"g.	c #FBFDFD",
"h.	c #F6F8F8",
"i.	c #478888",
"j.	c #068B8B",
"k.	c #05A9A8",
"l.	c #09BABA",
"m.	c #09B5B4",
"n.	c #059E9D",
"o.	c #068281",
"p.	c #286D6B",
"q.	c #C4D2D2",
"r.	c #F2F2F3",
"s.	c #727A7B",
"t.	c #073636",
"u.	c #066361",
"v.	c #068383",
"w.	c #059C9B",
"x.	c #07B1AF",
"y.	c #05C3C1",
"z.	c #02CCCC",
"A.	c #04C5C5",
"B.	c #2ABDBC",
"C.	c #D7EFEF",
"D.	c #C5D4D6",
"E.	c #137E7E",
"F.	c #09B0AF",
"G.	c #08B0AE",
"H.	c #06A2A1",
"I.	c #058585",
"J.	c #246D6C",
"K.	c #B1C3C2",
"L.	c #FDFDFE",
"M.	c #EBECEA",
"N.	c #727777",
"O.	c #0D2E2F",
"P.	c #064F4F",
"Q.	c #067573",
"R.	c #049291",
"S.	c #06A8A8",
"T.	c #05BBBD",
"U.	c #04C9C8",
"V.	c #06C6C5",
"W.	c #53C1BF",
"X.	c #E4F5F4",
"Y.	c #FDFFFE",
"Z.	c #F7FAF9",
"`.	c #72A7A7",
" +	c #059293",
".+	c #07A9A9",
"++	c #08AFAF",
"@+	c #05A2A2",
"#+	c #068789",
"$+	c #257171",
"%+	c #B7C8C8",
"&+	c #FAFBFB",
"*+	c #FFFEFF",
"=+	c #ECEEEC",
"-+	c #7A7F7F",
";+	c #172F2E",
">+	c #054140",
",+	c #056867",
"'+	c #058785",
")+	c #05A1A1",
"!+	c #06CCCA",
"~+	c #0EC3C1",
"{+	c #8BD5D5",
"]+	c #DDE7E8",
"^+	c #359495",
"/+	c #06A4A5",
"(+	c #09AEAE",
"_+	c #07A4A5",
":+	c #078989",
"<+	c #227776",
"[+	c #ADC2C2",
"}+	c #F9FAFA",
"|+	c #F9F9F9",
"1+	c #ACADAD",
"2+	c #2F3839",
"3+	c #062D2C",
"4+	c #045250",
"5+	c #047778",
"6+	c #049997",
"7+	c #07B3B2",
"8+	c #0ACFCE",
"9+	c #28CCCC",
"0+	c #C3E9EA",
"a+	c #ABCDCC",
"b+	c #0F9896",
"c+	c #09AEAD",
"d+	c #07A8A7",
"e+	c #058E8E",
"f+	c #257875",
"g+	c #ABC4C3",
"h+	c #FEFDFE",
"i+	c #E1E1E2",
"j+	c #7C8080",
"k+	c #2C3C3F",
"l+	c #073535",
"m+	c #055D5C",
"n+	c #058383",
"o+	c #09ACAE",
"p+	c #1BD2D0",
"q+	c #53D6D5",
"r+	c #E6F5F5",
"s+	c #6AAFAF",
"t+	c #07A7A8",
"u+	c #07A8A8",
"v+	c #078E90",
"w+	c #287776",
"x+	c #C0D1D0",
"y+	c #F9FBFC",
"z+	c #D3D3D4",
"A+	c #84898A",
"B+	c #2D4344",
"C+	c #0A413E",
"D+	c #05716F",
"E+	c #0EA1A2",
"F+	c #3FD0CF",
"G+	c #76A7BD",
"H+	c #328A97",
"I+	c #07A8A6",
"J+	c #098E8E",
"K+	c #3E8787",
"L+	c #BFD0CF",
"M+	c #FBFBFB",
"N+	c #DADBDA",
"O+	c #8B8E8E",
"P+	c #274445",
"Q+	c #065656",
"R+	c #149491",
"S+	c #308BA9",
"T+	c #16768B",
"U+	c #069192",
"V+	c #29597A",
"W+	c #AAA5C2",
"X+	c #F9FAF8",
"Y+	c #FAFDFD",
"Z+	c #D6D4D7",
"`+	c #39455C",
" @	c #11777F",
".@	c #367FA8",
"+@	c #276086",
"@@	c #19B8B5",
"#@	c #4BC7D2",
"$@	c #34BBC9",
"%@	c #4BCCCC",
"&@	c #88D8D8",
"*@	c #BAE5E3",
"=@	c #EAF7F6",
"-@	c #FEFFFD",
";@	c #F5F8F8",
">@	c #95C8CA",
",@	c #1C949D",
"'@	c #0CB3B4",
")@	c #2F7CA8",
"!@	c #4F2C7B",
"~@	c #107076",
"{@	c #31B3B4",
"]@	c #57D7D6",
"^@	c #40D9D9",
"/@	c #1DCFD2",
"(@	c #1FC6C6",
"_@	c #3BBDBC",
":@	c #7BCDCB",
"<@	c #BDE5E4",
"[@	c #EBF5F6",
"}@	c #F9FCFD",
"|@	c #F2F7F6",
"1@	c #90C1C2",
"2@	c #15A6A5",
"3@	c #08AEAF",
"4@	c #3F4D8F",
"5@	c #9E0AA7",
"6@	c #3C205C",
"7@	c #056262",
"8@	c #0F9292",
"9@	c #2CB9BB",
"0@	c #47D9D8",
"a@	c #3BE4E2",
"b@	c #15DBD9",
"c@	c #07C6C5",
"d@	c #16BFBE",
"e@	c #4BC7C5",
"f@	c #91DAD8",
"g@	c #E1F3F3",
"h@	c #FBFDFC",
"i@	c #DAE5E6",
"j@	c #53A3A0",
"k@	c #0CA09D",
"l@	c #08AEAE",
"m@	c #05A6A3",
"n@	c #088487",
"o@	c #6D1C8B",
"p@	c #B804B9",
"q@	c #B205B5",
"r@	c #3D1A59",
"s@	c #0B4C52",
"t@	c #047974",
"u@	c #059899",
"v@	c #0CAFAF",
"w@	c #0FCACB",
"x@	c #06D0CF",
"y@	c #01D0CE",
"z@	c #02CDCD",
"A@	c #06C7C6",
"B@	c #18BEBC",
"C@	c #8DD7D6",
"D@	c #EFF8F8",
"E@	c #FCFFFE",
"F@	c #F7F8FA",
"G@	c #BAD2D3",
"H@	c #3A908E",
"I@	c #0B9C9C",
"J@	c #09ABAD",
"K@	c #059698",
"L@	c #16566E",
"M@	c #81068A",
"N@	c #AF02AF",
"O@	c #C302C4",
"P@	c #B607B8",
"Q@	c #651A82",
"R@	c #1B465F",
"S@	c #057576",
"T@	c #04918F",
"U@	c #05A7A8",
"V@	c #05B9B7",
"W@	c #04C5C4",
"X@	c #01CACA",
"Y@	c #02CCC9",
"Z@	c #04C9C7",
"`@	c #14BCB7",
" #	c #8DD5D4",
".#	c #F4FAFA",
"+#	c #F8FBFC",
"@#	c #9DC0BF",
"##	c #258281",
"$#	c #059896",
"%#	c #07A9A8",
"&#	c #06A8A9",
"*#	c #069D9C",
"=#	c #077D7F",
"-#	c #1C2B4A",
";#	c #690269",
">#	c #990297",
",#	c #B903BD",
"'#	c #D90DDB",
")#	c #DC0FDA",
"!#	c #9B11AD",
"~#	c #2E3E6F",
"{#	c #086B6F",
"]#	c #038B89",
"^#	c #04A19E",
"/#	c #06B0B0",
"(#	c #04BDBD",
"_#	c #03C7C4",
":#	c #03C8C7",
"<#	c #05C4C1",
"[#	c #22BAB7",
"}#	c #B9E3E4",
"|#	c #F5F7F7",
"1#	c #8CB3B3",
"2#	c #137E7B",
"3#	c #069495",
"4#	c #07A6A6",
"5#	c #05A7A5",
"6#	c #049F9E",
"7#	c #048A8A",
"8#	c #156869",
"9#	c #2A2A3A",
"0#	c #440243",
"a#	c #730273",
"b#	c #A003A2",
"c#	c #D317D5",
"d#	c #F440F1",
"e#	c #DD12DD",
"f#	c #B70AC1",
"g#	c #592983",
"h#	c #0B5F68",
"i#	c #067F80",
"j#	c #059597",
"k#	c #06A6A7",
"l#	c #05B4B3",
"m#	c #06BDBC",
"n#	c #05C1C0",
"o#	c #08BABB",
"p#	c #51C3C2",
"q#	c #9CBCBA",
"r#	c #197B7C",
"s#	c #059093",
"t#	c #04A0A1",
"u#	c #06A5A5",
"v#	c #049D9D",
"w#	c #068F8F",
"x#	c #06706F",
"y#	c #679494",
"z#	c #979598",
"A#	c #2B082D",
"B#	c #530353",
"C#	c #7C027B",
"D#	c #AF08AE",
"E#	c #E75FE6",
"F#	c #EE5DED",
"G#	c #D306D2",
"H#	c #BA06C1",
"I#	c #59217D",
"J#	c #0C515B",
"K#	c #057170",
"L#	c #048B8B",
"M#	c #05A8A6",
"N#	c #06B1B0",
"O#	c #09B0B3",
"P#	c #13A8A6",
"Q#	c #C1D0D0",
"R#	c #287878",
"S#	c #058A8A",
"T#	c #029998",
"U#	c #03A09E",
"V#	c #039C9D",
"W#	c #058F8F",
"X#	c #067A79",
"Y#	c #1E6362",
"Z#	c #C3D4D4",
"`#	c #EDECED",
" $	c #504050",
".$	c #3E043E",
"+$	c #610262",
"@$	c #870287",
"#$	c #B829B9",
"$$	c #EF9AEF",
"%$	c #DE24DC",
"&$	c #CD01CD",
"*$	c #AF06B1",
"=$	c #411A59",
"-$	c #083E3F",
";$	c #046060",
">$	c #047879",
",$	c #048A89",
"'$	c #039897",
")$	c #059A9B",
"!$	c #1B9598",
"~$	c #F2F5F5",
"{$	c #4B7C7B",
"]$	c #077979",
"^$	c #039292",
"/$	c #019898",
"($	c #029798",
"_$	c #058E8D",
":$	c #067776",
"<$	c #0B5B5A",
"[$	c #88A0A0",
"}$	c #F6F8F9",
"|$	c #C1BEC0",
"1$	c #3C1F3C",
"2$	c #500351",
"3$	c #700271",
"4$	c #8C068D",
"5$	c #C03ABC",
"6$	c #E871E9",
"7$	c #D00ED2",
"8$	c #C502C5",
"9$	c #991B9B",
"0$	c #6A5F70",
"a$	c #223C3E",
"b$	c #073D3E",
"c$	c #065354",
"d$	c #056161",
"e$	c #1B7171",
"f$	c #8FBBBB",
"g$	c #B8C5C6",
"h$	c #0F5E5D",
"i$	c #078180",
"j$	c #058D8D",
"k$	c #058D8C",
"l$	c #078585",
"m$	c #077474",
"n$	c #0C5A5A",
"o$	c #5A7C7D",
"p$	c #F1F4F4",
"q$	c #F9FAF9",
"r$	c #948E95",
"s$	c #370E38",
"t$	c #650361",
"u$	c #7D0482",
"v$	c #930594",
"w$	c #C93BCB",
"x$	c #DB2CD8",
"y$	c #C901CB",
"z$	c #B113B1",
"A$	c #D4A9D5",
"B$	c #DBDDDC",
"C$	c #AFB6B5",
"D$	c #939F9F",
"E$	c #9CABAB",
"F$	c #CDDADA",
"G$	c #F7F9F9",
"H$	c #FDFEFF",
"I$	c #F9F9FA",
"J$	c #809697",
"K$	c #075E5D",
"L$	c #077A79",
"M$	c #098180",
"N$	c #087C7B",
"O$	c #066F6E",
"P$	c #085855",
"Q$	c #537676",
"R$	c #DAE1E2",
"S$	c #EBEBEC",
"T$	c #6B5F6C",
"U$	c #470545",
"V$	c #740375",
"W$	c #91028E",
"X$	c #A707A6",
"Y$	c #CF1BCF",
"Z$	c #D105D1",
"`$	c #B604B8",
" %	c #C880CB",
".%	c #FDFCFC",
"+%	c #FCFEFD",
"@%	c #F8F8F7",
"#%	c #748989",
"$%	c #085353",
"%%	c #056A6A",
"&%	c #056C6C",
"*%	c #066263",
"=%	c #0A5050",
"-%	c #577776",
";%	c #E2E9E8",
">%	c #E5E4E5",
",%	c #4D354B",
"'%	c #530355",
")%	c #880288",
"!%	c #9C029E",
"~%	c #B103B3",
"{%	c #CC04CD",
"]%	c #C102C2",
"^%	c #B446B6",
"/%	c #FBF8FB",
"(%	c #B2BABB",
"_%	c #164243",
":%	c #064645",
"<%	c #094847",
"[%	c #265152",
"}%	c #839999",
"|%	c #ECEFEF",
"1%	c #FDFFFD",
"2%	c #C5C3C3",
"3%	c #4B2A4A",
"4%	c #650265",
"5%	c #99029A",
"6%	c #AB04AD",
"7%	c #BE03C0",
"8%	c #C902C7",
"9%	c #B621B4",
"0%	c #EFDDEF",
"a%	c #F6F5F6",
"b%	c #A7B0AF",
"c%	c #728382",
"d%	c #8E9C9A",
"e%	c #CBD1D2",
"f%	c #F5F6F6",
"g%	c #A8A1A8",
"h%	c #421442",
"i%	c #800280",
"j%	c #A803A8",
"k%	c #BD03BA",
"l%	c #C502C7",
"m%	c #B90EBA",
"n%	c #DFB4DD",
"o%	c #F7F5F6",
"p%	c #8D8891",
"q%	c #4E074C",
"r%	c #90038F",
"s%	c #B803BA",
"t%	c #C602C7",
"u%	c #C005C0",
"v%	c #CC85CE",
"w%	c #FEFCFD",
"x%	c #F6F5F4",
"y%	c #715F6F",
"z%	c #5A095B",
"A%	c #A703A6",
"B%	c #C901C7",
"C%	c #C454C3",
"D%	c #F9F2F9",
"E%	c #DEDCDE",
"F%	c #664C68",
"G%	c #740372",
"H%	c #B702B9",
"I%	c #CA01CC",
"J%	c #C02FBF",
"K%	c #F3E2F3",
"L%	c #D4D1D5",
"M%	c #572A57",
"N%	c #900390",
"O%	c #C202C3",
"P%	c #BD17BC",
"Q%	c #EBCDEB",
"R%	c #C6C1C5",
"S%	c #632464",
"T%	c #A002A2",
"U%	c #BA08BD",
"V%	c #E2B0E1",
"W%	c #FAFBF9",
"X%	c #B8AAB9",
"Y%	c #7A237A",
"Z%	c #A805A9",
"`%	c #DD9EDB",
" &	c #FAFAFA",
".&	c #C1AFC2",
"+&	c #842486",
"@&	c #D8AAD7",
"                                  + @ # $ % & * = - ; > , @   ",
"                                    # ' ) ! ~ { ] ^ / ( _ :   ",
"                                    @ < [ } | 1 2 3 4 5 6 :   ",
"7 8 9 0 $ + $ 0 +                 : a b c d e f g h i j $ :   ",
"k l m n o p q r @                 + s t u v w x y z A B 6 :   ",
"C D E F G H I J @                 0 K L M N O P Q R S T r U   ",
"V W X Y Z `  ...+., @ :         + @.#.$.%.&.*.=.-.;.>.,.U :   ",
"'.).!.~.{.].^./.(._.:.0       : _ <.[.}.|.1.2.3.4.5.@         ",
"6.7.8.9.0.a.b.c.d.e.f.g.      : h.i.j.k.l.m.n.o.p.q.6         ",
"r.s.t.u.v.w.x.y.z.A.B.C.r : @ # D.E.3.F.G.H.I.J.K.< U         ",
"L.M.N.O.P.Q.R.S.T.U.V.W.X.$ Y.Z.`. +.+++@+#+$+%+&+*+:         ",
"*+, =+-+;+>+,+'+)+1 !+~+{+:.U ]+^+/+(+_+:+<+[+}+              ",
": *+*+|+1+2+3+4+5+6+7+8+9+0+9 a+b+c+d+e+f+g+h+:               ",
"        a i+j+k+l+m+n+o+p+q+r+s+t+u+v+w+x+y+*+:               ",
"            }+z+A+B+C+D+E+F+G+H+I+J+K+L+M+*+                  ",
"              : r N+O+P+Q+R+S+T+U+V+W+X+L.0 0 : @ . :         ",
"                  : Y+Z+`+ @.@+@@@#@$@%@&@*@=@q 0 Y.U         ",
"                  -@;@>@,@'@)@!@~@{@]@^@/@(@_@:@<@[@}@:       ",
"              7 r |@1@2@3@/+4@5@6@7@8@9@0@a@b@c@d@e@f@g@$ 0 : ",
"            Y.h@i@j@k@l@m@n@o@p@q@r@s@t@u@v@w@x@y@z@A@B@C@D@E@",
"            F@G@H@I@J@S.K@L@M@N@O@P@Q@R@S@T@U@V@W@X@Y@Z@`@ #.#",
"      : U +#@###$#%#&#*#=#-#;#>#,#'#)#!#~#{#]#^#/#(#_#:#<#[#}#",
"      @ |#1#2#3#4#5#6#7#8#9#0#a#b#c#d#e#f#g#h#i#j#k#l#m#n#o#p#",
"      Z.q#r#s#t#u#v#w#x#y#z#A#B#C#D#E#F#G#H#I#J#K#L#3.M#N#O#P#",
"  @ @ Q#R#S#T#U#V#W#X#Y#Z#`# $.$+$@$#$$$%$&$*$=$-$;$>$,$'$)$!$",
": 0 ~${$]$^$/$($_$:$<$[$}$6 |$1$2$3$4$5$6$7$8$9$0$a$b$c$d$e$f$",
": h+g$h$i$j$k$l$m$n$o$p$    q$r$s$t$u$v$w$x$y$z$A$B$C$D$E$F$G$",
"H$I$J$K$L$M$N$O$P$Q$R$,     *+S$T$U$V$W$X$Y$Z$`$ %.%+%U $ $ + ",
"U @%#%$%%%&%*%=%-%;%0         : >%,%'%)%!%~%{%]%^%/%U         ",
"  0 (%_%:%<%[%}%|%0 *+          1%2%3%4%5%6%7%8%9%0%r         ",
": @ a%b%c%d%e%f%r : :             a g%h%i%j%k%l%m%n%0         ",
"                                  : o%p%q%r%s%t%u%v%w%        ",
"                                    0 x%y%z%A%B%l%C%D%        ",
"                                    : L.E%F%G%H%I%J%K%        ",
"                                        0 L%M%N%O%P%Q%        ",
"                                          a R%S%T%U%V%        ",
"                                            W%X%Y%Z%`%        ",
"                                               &.&+&@&        "};
