/* XPM */
static char * sysgarlogo4_xt[] = {
"13 16 131 2",
"  	c None",
". 	c #FFFFFF",
"+ 	c #FEFFFF",
"@ 	c #F3F7F8",
"# 	c #66BAB9",
"$ 	c #0BBFBE",
"% 	c #9CE5E2",
"& 	c #F6FBFA",
"* 	c #ECF7F6",
"= 	c #FEFFFE",
"- 	c #FDFEFD",
"; 	c #54A5A4",
"> 	c #18B8B8",
", 	c #48D9D8",
"' 	c #82CCCA",
") 	c #FFFEFF",
"! 	c #259393",
"~ 	c #09BBBA",
"{ 	c #4CD2D2",
"] 	c #D9F3F2",
"^ 	c #B8D0CF",
"/ 	c #079D9D",
"( 	c #38D7D5",
"_ 	c #0B9898",
": 	c #CDE0DF",
"< 	c #447373",
"[ 	c #069191",
"} 	c #05BFBE",
"| 	c #13CACA",
"1 	c #C6ECEB",
"2 	c #FEFEFE",
"3 	c #469A9A",
"4 	c #08B4B3",
"5 	c #079E9D",
"6 	c #71A1A1",
"7 	c #E6E7E7",
"8 	c #325555",
"9 	c #057877",
"0 	c #05B3B3",
"a 	c #1EC6C4",
"b 	c #E8F6F6",
"c 	c #D9E6E6",
"d 	c #089B9C",
"e 	c #079FA0",
"f 	c #609B9B",
"g 	c #FBFCFC",
"h 	c #F4F4F4",
"i 	c #727E7E",
"j 	c #0C5455",
"k 	c #07A0A0",
"l 	c #63DADA",
"m 	c #84C5C4",
"n 	c #07A3A3",
"o 	c #62A1A0",
"p 	c #E5E5E6",
"q 	c #738989",
"r 	c #1C8285",
"s 	c #238297",
"t 	c #4191A1",
"u 	c #E8F5F4",
"v 	c #B3DBDB",
"w 	c #10A0A5",
"x 	c #4F3C8B",
"y 	c #2CA4A3",
"z 	c #2ECECE",
"A 	c #47D1D0",
"B 	c #97DFDE",
"C 	c #ECF8F8",
"D 	c #FBFCFD",
"E 	c #81BBBA",
"F 	c #0AA6A6",
"G 	c #127485",
"H 	c #AB04AD",
"I 	c #731A8D",
"J 	c #0C747B",
"K 	c #03C9C8",
"L 	c #13C7C4",
"M 	c #BEE8E7",
"N 	c #FAFCFC",
"O 	c #5BA2A2",
"P 	c #069F9F",
"Q 	c #059797",
"R 	c #31515D",
"S 	c #720272",
"T 	c #D927D8",
"U 	c #AF17BE",
"V 	c #1D5C78",
"W 	c #059C9D",
"X 	c #05BAB8",
"Y 	c #29BDBC",
"Z 	c #85ADAD",
"` 	c #039292",
" .	c #049595",
"..	c #1E7473",
"+.	c #E1E5E5",
"@.	c #502251",
"#.	c #8D0C8D",
"$.	c #DD4DDC",
"%.	c #A208A7",
"&.	c #265358",
"*.	c #056F6F",
"=.	c #2A9495",
"-.	c #FDFDFE",
";.	c #186867",
">.	c #078080",
",.	c #126767",
"'.	c #C5D1D1",
").	c #C7C3C7",
"!.	c #5D085E",
"~.	c #A911A8",
"{.	c #C807C9",
"].	c #DFBCE0",
"^.	c #E1E3E2",
"/.	c #F7F8F8",
"(.	c #4F7272",
"_.	c #467373",
":.	c #CFD8D8",
"<.	c #A192A1",
"[.	c #820283",
"}.	c #BF03C0",
"|.	c #D47FD3",
"1.	c #856384",
"2.	c #AE02AE",
"3.	c #CA43CA",
"4.	c #F7F7F7",
"5.	c #833E84",
"6.	c #BD13BE",
"7.	c #FEFCFE",
"8.	c #EDEBED",
"9.	c #9B359C",
"0.	c #F9F0F9",
"              + @ # $ % + ",
"& * = =       - ; > , ' ) ",
"! ~ { ] =     ^ / ( _ : + ",
"< [ } | 1   2 3 4 5 6     ",
"7 8 9 0 a b c d e f g     ",
"  h i j k l m n o g       ",
"      p q r s t u = +     ",
"      = v w x y z A B C   ",
"    D E F G H I J 4 K L M ",
"  N O P Q R S T U V W X Y ",
"+ Z `  ...+.@.#.$.%.&.*.=.",
"-.;.>.,.'.  ).!.~.{.].^./.",
"2 (._.:.+   = <.[.}.|.+   ",
"              2 1.2.3.    ",
"                4.5.6.7.  ",
"                  8.9.0.  "};
