/* XPM */
static char*trend2[]={
"16 16 6 1",
"a c #c05800",
"b c #ff8000",
"c c #800000",
". c None",
"d c #c00000",
"e c #ff0000",
"................",
".......aa.......",
".......bb....c..",
"....aa.....ccd..",
"....bb...ccdde..",
".......ccddee...",
".....ccddee.....",
"...ccddee.......",
".ccddee....aa...",
".ddee......bb...",
".ee.............",
"................",
"..aa............",
"..bb............",
"................",
"................"};
