/* XPM */
static char*trend3[]={
"16 16 9 1",
"b c #c05800",
"g c #00ffff",
"d c #000000",
"a c #ff8000",
"c c #800000",
"e c #008080",
". c None",
"f c #c00000",
"h c #ff0000",
"................",
".......aa.......",
".......bb....c..",
"....aadede.ccf..",
"....bbgggccffh..",
"....degccffhh...",
"....dccffhh.....",
"...ccffhhde.....",
".ccffhhgggdaa...",
".ffhhggggggbb...",
".hhdeggggggde...",
"...deggggggde...",
"..aaggggggggde..",
"..bbggggggggde..",
"..deggggggggde..",
"................"};
