/* XPM */
static char * versionstore2[] = {
"16 16 3 1",
" 	c None",
".	c black",
"X	c #585858",
"                ",
"                ",
"                ",
"                ",
"                ",
"       .       .",
" ... ..   ..  . ",
"   ...     .  . ",
"    .   XX .... ",
"    .   .X  ... ",
"  ....        . ",
" ..  ..       . ",
" .    ..  .  .. ",
"          ...   ",
"                ",
"                "};
