/* XPM */
static char*watch1[]={
"16 16 7 1",
"b c #808080",
"d c #00ffff",
"f c #000000",
". c None",
"a c #585858",
"e c #dcdcdc",
"c c #ffffff",
"................",
"...aa...........",
".....a..........",
"....bca.........",
"...bdeeaa.......",
"..fdddeeeaaa....",
"..ffdddeeeeeaaa.",
"..fffddeeeeeeef.",
"..ffdddeeeeeaaa.",
"..fdddeeeaaa....",
"...bdeeaa.......",
"....bea.........",
".....a..........",
"...aa...........",
"................",
"................"};
