/* XPM */
static char*zoomout_x1[]={
"16 16 7 1",
"d c #c05800",
"a c #00ffff",
"b c #ff8000",
"c c #004040",
"e c #800000",
"# c #008080",
". c #c0ffff",
"................",
".......#a.......",
".......##...b...",
".......c#..db...",
".......c#.ddbbbb",
".......c#edddddb",
".......c#.eddeee",
"...b...c#..ed...",
"...db..c#...e...",
"bbbddb.c#.......",
"ddddddbc#.......",
"eeeedd.c#.......",
"...ed..c#.......",
"...e...c#.......",
".......c#.......",
"................"};
