/* XPM */
static char*zoomin2[]={
"16 16 8 1",
"a c #808080",
"e c #a0a0a0",
"b c #000000",
"f c #303030",
". c None",
"# c #585858",
"d c #ff0000",
"c c #00c0c0",
"...####a........",
"..b#cccba.......",
".b#cdddcba......",
"b#ccdddccba.....",
"badddddddba.....",
"badddddddba.....",
"badddddddba.....",
"b#acdddc#ba.....",
".b#addd#bae.....",
"..b#aaabf#ae....",
"...bbbbb.f#ae...",
"..........f#ae..",
"...........f#ae.",
"............f#ae",
".............f#a",
"..............f."};
