/* XPM */
static char * zoomout4[] = {
/* width height ncolors cpp [x_hot y_hot] */
"16 16 10 1",
/* colors */
" 	c #C0FFFF",
".	c #FF8000",
"X	c #C05800",
"o	c #800000",
"O	c #585858",
"+	c black",
"@	c #808080",
"#	c red",
"$	c #bdbdbd",
"%	c #a0a0a0",
/* pixels */
"                ",
"                ",
"                ",
"      OOO       ",
"    +++O+@@     ",
"    +O   +@     ",
"   +O     +@    ",
"   +O#####+@    ",
"   +O     +@    ",
"    +O   O@$    ",
"    ++OOO++O%$  ",
"      +++  +OO$ ",
"            ++O$",
"              +O",
"               +",
"                "};
