/* XPM */
static char*zoomin_y1[]={
"16 16 7 1",
"b c #c05800",
"d c #00ffff",
"# c #ff8000",
"e c #004040",
"a c #800000",
"c c #008080",
". c #c0ffff",
"..........#.....",
".........ab#....",
"........abbb#...",
".......abbbbb#..",
".........ab#....",
".........ab#....",
".........ab#....",
".cccccccccccccd.",
".eeeeeeeeeeeecc.",
"....ab#.........",
"....ab#.........",
"....ab#.........",
"..aaab###.......",
"...abbbb........",
"....abb.........",
".....a.........."};
