/* XPM */
static char*zoomin_x1[]={
"16 16 7 1",
"c c #c05800",
"a c #00ffff",
"b c #ff8000",
"d c #004040",
"e c #800000",
"# c #008080",
". c #c0ffff",
"................",
".......#a.......",
"...b...##.......",
"..cb...d#.......",
".ccbbbbd#.......",
"ecccccbd#.......",
".ecceeed#.......",
"..ec...d#...b...",
"...e...d#...cb..",
".......d#bbbccb.",
".......d#ccccccb",
".......d#eeeecc.",
".......d#...ec..",
".......d#...e...",
".......d#.......",
"................"};
