/* XPM */
static char*zoomout_y1[]={
"16 16 7 1",
"a c #c05800",
"d c #00ffff",
"b c #ff8000",
"e c #004040",
"# c #800000",
"c c #008080",
". c #c0ffff",
"....#ab.........",
"....#ab.........",
"....#ab.........",
"..###abbb.......",
"...#aaaa........",
"....#aa.........",
".....#..........",
".cccccccccccccd.",
".eeeeeeeeeeeecc.",
"..........b.....",
".........#ab....",
"........#aaab...",
".......#aaaaab..",
".........#ab....",
".........#ab....",
".........#ab...."};
