/* XPM */
static char*cpu1[]={
"16 16 8 1",
"a c None",
"# c #808080",
"e c #00ffff",
"f c #000000",
"d c #ff8000",
"c c #303030",
"b c #585858",
". c None",
"..###########a..",
"..bbbbbbbbbbb#a.",
".cbdddeeedddb#a.",
".cbdddeeedddb#a.",
".cbdddeeedddb#a.",
".cbeeedddeeeb#a.",
".cbeeedddeeeb#a.",
".cbeeedddeeeb#a.",
".cbbbbbbbbbbbba.",
".cccccfbbccccaa.",
".aaaaafb#aaaaaa.",
".abbbbfb#####aa.",
".cbbbbbbbbbbb#..",
".cedddeeedddb#a.",
".cbbbbbbbbbbbba.",
".ccccccccccccca."};
