/* XPM */
static char*event1[]={
"16 16 3 1",
"b c #000000",
". c None",
"# c #585858",
"................",
"......##........",
".....bbb#.......",
"....bbbbb#......",
"....bbbbb#......",
"....bbbbb#......",
"....bbbbb#......",
".....bbbb.......",
"......bb........",
"......bb........",
"................",
"......##........",
".....bbb#.......",
".....bbb#.......",
"......bb........",
"................"};
