/* XPM */
static char*filedata2[]={
"16 16 8 1",
"d c #ffa858",
"f c #c05800",
"b c #00ffff",
". c None",
"c c #ff8000",
"# c #303030",
"e c #008080",
"a c #c0ffff",
"................",
".......#######..",
"......##abbcc#..",
".....#c#abbcc#..",
"....#bb#dccbb#..",
"...#bbb#dccbb#..",
"..######dccbb#..",
"..#eefffbbbcc#..",
"..#bbcccbbbcc#..",
"..#bbcccbbbcc#..",
"..#ccbbbcccbb#..",
"..#ccbbbcccbb#..",
"..#ccbbbcccbb#..",
"..#bbcccbbbcc#..",
"..############..",
"................"};
