/* XPM */
static char*graph9[]={
"16 16 9 1",
"# c #808080",
"b c #a0a0a0",
". c #c0c000",
"g c #ffff00",
"d c #303030",
"f c #800000",
"e c #c00000",
"a c #585858",
"c c #ff0000",
"...#............",
"..#a............",
".baa#####......c",
"daaaaaaaa.....ce",
".daaddddd....cef",
"..dd..c.....cefg",
"...d.cec...cefgg",
"....cefec.cefggg",
"...cefgfecefgggg",
"..cefgggfefggggg",
".cefgggggfgggggg",
"cefggggggggggggg",
"efgggggggggggggg",
"fggggggggggggggg",
"gggggggggggggggg",
"gggggggggggggggg"};
