/* XPM */
static char*graph1[]={
"16 16 4 1",
". c None",
"b c #800000",
"a c #c00000",
"# c #ff0000",
"................",
"................",
"...............#",
"..............#a",
".............#ab",
"......#.....#ab.",
".....#a#...#ab..",
"....#aba#.#ab...",
"...#ab.ba#ab....",
"..#ab...bab.....",
".#ab.....b......",
"#ab.............",
"ab..............",
"b...............",
"................",
"................"};
