/* XPM */
static char*holstore1[]={
"16 16 5 1",
"# c #808080",
"c c #00ffff",
"a c #000000",
". c None",
"b c #ff8000",
"................",
"................",
"................",
"................",
"..############..",
".abbbbbbcccccc#.",
".abbbbbbcccccc#.",
".abbbbbbcccccc#.",
".abbbbbbcccccc#.",
".aaaaaaaaaaaaa..",
"................",
"................",
"................",
"................",
"................",
"................"};
