/* XPM */
static char*homedata1[]={
"16 16 5 1",
"c c #00ffff",
". c None",
"b c #ff8000",
"# c #303030",
"a c #585858",
"......####......",
"....##aaaa##....",
"..##aaaaaaaa##..",
"################",
".#bbbcccbbbccc#.",
".#bbbcccbbbccc#.",
".#bbbcccbbbccc#.",
".#cccbbbcccbbb#.",
".#cccbbbcccbbb#.",
".#cccbbbcccbbb#.",
".#bbbcccbbbccc#.",
".#bbbcccbbbccc#.",
".#bbbcccbbbccc#.",
".#cccbbbcccbbb#.",
".#cccbbbcccbbb#.",
".##############."};
