/* XPM */
static char*homedata3[]={
"16 16 6 1",
"d c #00ffff",
"# c #000000",
". c None",
"c c #ff8000",
"b c #303030",
"a c #585858",
"..#a............",
"..#a..bbbb......",
"..#abbaaaabb....",
"..bbaaaaaaaabb..",
"bbbbbbbbbbbbbbbb",
"..bccdddcccddb..",
"..bccdddcccddb..",
"..bddcccdddccb..",
"..bddcccdddccb..",
"..bddcccdddccb..",
"..bccdddcccddb..",
"..bccdddcccddb..",
"..bccdddcccddb..",
"..bddcccdddccb..",
"..bbbbbbbbbbbb..",
"................"};
