/* XPM */
static char*lesswidget1[]={
"16 16 10 1",
"g c #c05800",
"d c #00ffff",
"a c #000000",
"e c #ff8000",
"f c #004040",
"h c #800000",
"c c #008080",
". c None",
"b c #c0ffff",
"# c #585858",
"................",
".#############..",
".abbbbbbbbbbb#..",
".abcdbbbbbbbb#..",
".abccbbbebbbb#..",
".abfcbbgebbbb#..",
".abfcbggeeeee#..",
".abfchgggggge#..",
".abfcbhgghhhh#..",
".abfcbbhgbbbb#..",
".abfcbbbhbbbb#..",
".abfcbbbbbbbb#..",
".abbbbbbbbbbb#..",
".abbbbbbbbbbb#..",
".aaaaaaaaaaaaa..",
"................"};
