/* XPM */
static char*logs1[]={
"16 16 9 1",
"e c #ffa858",
"c c #c05800",
"g c #00ffff",
"f c #000000",
"d c #ff8000",
"b c #303030",
". c None",
"# c #585858",
"h c #00c0c0",
"..........#.....",
".........bb#....",
"........ccbb#...",
".......cccdbb#..",
"......cccdde#...",
".....cccddee....",
"....cccddee.....",
"...cccddee......",
"..cccddee.......",
".cccddee........",
".fcddee.........",
".ffdee..........",
".fffe...........",
".ggggggggggggg..",
"..hhhhhhhhhhhhh.",
"................"};
