/* XPM */
static char*magglass1[]={
"16 16 8 1",
"a c #808080",
"e c #a0a0a0",
"d c #00ffff",
"b c #000000",
"f c #303030",
". c None",
"# c #585858",
"c c #00c0c0",
"...####a........",
"..b#cccba.......",
".b#cdddcba......",
"b#cdddddcba.....",
"badddddddba.....",
"badddddddba.....",
"badddddddba.....",
"b#addddd#ba.....",
".b#accc#bae.....",
"..b#aaabf#ae....",
"...bbbbb.f#ae...",
"..........f#ae..",
"...........f#ae.",
"............f#ae",
".............f#a",
"..............f."};
