/* XPM */
static char*netdata3[]={
"16 16 6 1",
"# c #808080",
"d c #00ffff",
". c None",
"c c #ff8000",
"a c #303030",
"b c #585858",
"................",
"..############..",
".abbbbbbbbbbbb#.",
".abcccdddcccdb#.",
".abcccdddcccdb#.",
".abcccdddcccdb#.",
".abdddcccdddcb#.",
".abdddcccdddcb#.",
".abdddcab#ddcb#.",
".abbbbbab#bbbb#.",
".aaaaaaab#aaaa..",
".......ab#......",
"#######ab#######",
"bbbbbbbab#bbbbbb",
"aaaaaaaab#aaaaaa",
"................"};
