/* XPM */
static char*rep1[]={
"16 16 4 1",
". c None",
"a c #c05800",
"# c #ff8000",
"b c #800000",
"................",
"...#............",
"..a#............",
".aa#######......",
"baaaaaaaaa#.....",
".baabbbbaa#.....",
"..ba...ba#......",
"...b...ba#......",
"......ba#...#...",
"......ba#...a#..",
".....b######aa#.",
".....baaaaaaaaa#",
"......bbbbbbbaa.",
"............ba..",
"............b...",
"................"};
