/* XPM */
static char*rep2[]={
"16 16 10 1",
"a c None",
". c #ff00ff",
"c c #c05800",
"f c #00ffff",
"b c #ff8000",
"# c #ffc0ff",
"d c #800000",
"h c #008080",
"e c #c000c0",
"g c #00c0c0",
".....##aaaaaaaaa",
"...b.##aaaaaaaaa",
"..cb.##aaaaaaaaa",
".ccbbbbbbbaaaaaa",
"dcccccccccbaaaaa",
".dccddddccbaaaaa",
"e.dc..adcbaaaaaa",
"ee.d.aadcbaaffff",
"eee.aadcbaagbggf",
"aaaaaadcbaggcbgg",
"aaaaadcbbbbbccbg",
"aaaaadcccccccccc",
"aaaaaadddddddccg",
"aaaaaaaaahhhdcgg",
"aaaaaaaaahhhdhgg",
"aaaaaaaaahhhhhgg"};
