/* XPM */
static char*route1[]={
"16 16 7 1",
"e c #808080",
"c c #c05800",
"# c #00ffff",
"a c #000000",
"d c #ff8000",
"b c #303030",
". c None",
"................",
".######aabbbbb..",
".#######acdddb..",
".########acddb..",
".########bdddb..",
".######bdddacb..",
".bbbbbbddda#ab..",
".addddddaa###e..",
".addddddab###e..",
".aaaaaadddb#bb..",
".######adddbdb..",
".#######aadddb..",
".########adddb..",
".#######addddb..",
".######aaaaaab..",
"................"};
