/* XPM */
static char * tablestore1[] = {
"16 16 12 1",
" 	c None",
".	c #808080",
"X	c black",
"o	c #800000",
"O	c #303030",
"+	c #008000",
"@	c #c05800",
"#	c #ffa858",
"$	c #00c0c0",
"%	c #c0ffff",
"&	c #ff8000",
"*	c cyan",
"                ",
" .............  ",
" XoooooO+++++.  ",
" XoooooO+++++.  ",
" XOOOOOOOOOOO.  ",
" X@####O$%%%%.  ",
" X@&&&#O$***%.  ",
" X@&&&#O$***%.  ",
" X@@@@#O$$$$%.  ",
" XOOOOOOOOOOO.  ",
" X@####O$%%%%.  ",
" X@&&&#O$***%.  ",
" X@&&&#O$***%.  ",
" X@@@@#O$$$$%.  ",
" XXXXXXXXXXXX.  ",
"                "};
