/* XPM */
static char * timestore1[] = {
"16 16 8 1",
" 	c None",
".	c red",
"X	c #808080",
"o	c #ff8000",
"O	c #00c0c0",
"+	c #c00000",
"@	c #800000",
"#	c black",
"   .XXXXXXXXXXX ",
"   ..ooooOOOOOOX",
"++++..oooOOOOOOX",
"@+@@++oo++OOOOOX",
"@. @+###++##### ",
"@. @    ++      ",
"@.      ++      ",
"@.    @@+...    ",
"@. XXXX@+++XXXX ",
"@. #oooo@+OOOOOX",
"@. #oooooOOOOOOX",
"@. #oooooOOOOOOX",
"@. ############ ",
"@.      ++      ",
"@+......++      ",
"@@@@@@@@@+      "};
