/* XPM */
static char*trend1[]={
"16 16 7 1",
"b c #c0c0c0",
"f c #c05800",
"e c #ff8000",
"# c #800000",
"c c #008080",
". c None",
"a c #ff0000",
"............##..",
"...........#aa..",
".........##a....",
"........#aa.....",
"......##a.......",
".....#aa........",
"...##ac.........",
"..#aa.d.........",
".#a..cd.........",
".ad..dd.........",
".cd..cd.........",
".ddd.dd.........",
".cdd.cd.........",
".dddddd.ee..ee..",
".cddddd.ff..ff..",
"................"};
