/* XPM */
static char*uptime1[]={
"16 16 5 1",
"# c #c0c0c0",
"a c #00ffff",
"b c #008080",
". c None",
"c c #00c0c0",
"................",
".......a........",
"......bca.......",
".....bccca......",
"....bccccca.....",
"...bccccccca....",
"..bccccccccca...",
".bbbbbcccbbbba..",
".....bccca......",
".....bccca......",
".....bccca......",
".....bccca......",
".....bccca......",
".....bccca......",
".....bbbba......",
"................"};
