/* XPM */
static char*uptime2[]={
"16 16 5 1",
"a c #00ffff",
"# c #ff8000",
"b c #008080",
". c None",
"c c #00c0c0",
"................",
".######a######..",
".#####bca#####..",
".####bccca####..",
".###bccccca###..",
".##bccccccca##..",
".#bccccccccca#..",
".bbbbbcccbbbba..",
".####bccca####..",
".####bccca####..",
".####bccca####..",
".####bccca####..",
".####bccca####..",
".####bccca####..",
".####bbbba####..",
"................"};
