/* XPM */
static char * versionstore1[] = {
"16 16 2 1",
" 	c None",
".	c black",
"                ",
"       .     .  ",
"      ..    . . ",
"     . .    . . ",
"       .    . . ",
"       .    . . ",
"       .    . . ",
" .. .. . .. . . ",
"  . .  . .. . . ",
"  ...  .    . . ",
"  ..  ...    .  ",
"                ",
"                ",
"                ",
"                ",
"                "};
