/* XPM */
static char*zoomout2[]={
"16 16 9 1",
"a c #808080",
"f c #a0a0a0",
"d c #00ffff",
"b c #000000",
"g c #303030",
". c None",
"# c #585858",
"e c #ff0000",
"c c #00c0c0",
"...####a........",
"..b#cccba.......",
".b#cdddcba......",
"b#ccdddccba.....",
"baeeeeeeeba.....",
"baeeeeeeeba.....",
"baeeeeeeeba.....",
"b#acdddc#ba.....",
".b#accc#baf.....",
"..b#aaabg#af....",
"...bbbbb.g#af...",
"..........g#af..",
"...........g#af.",
"............g#af",
".............g#a",
"..............g."};
