/* XPM */
static char*zoomin3[]={
"16 16 9 1",
"a c #808080",
"f c #a0a0a0",
"c c #c05800",
"e c #00ffff",
"b c #000000",
"g c #303030",
". c None",
"# c #585858",
"d c #00c0c0",
"...####a........",
"..b#ccdba.......",
".b#dccedba......",
"b#decceedba.....",
"bccccccccba.....",
"bccccccccba.....",
"baeecceeeba.....",
"b#aeccee#ba.....",
".b#accd#baf.....",
"..b#aaabg#af....",
"...bbbbb.g#af...",
"..........g#af..",
"...........g#af.",
"............g#af",
".............g#a",
"..............g."};
