/* XPM */
static char*zoomout3[]={
"16 16 9 1",
"a c #808080",
"f c #a0a0a0",
"e c #c05800",
"d c #00ffff",
"b c #000000",
"g c #303030",
". c None",
"# c #585858",
"c c #00c0c0",
"...####a........",
"..b#cccba.......",
".b#cdddcba......",
"b#cdddddcba.....",
"beeeeeeeeba.....",
"beeeeeeeeba.....",
"badddddddba.....",
"b#addddd#ba.....",
".b#accc#baf.....",
"..b#aaabg#af....",
"...bbbbb.g#af...",
"..........g#af..",
"...........g#af.",
"............g#af",
".............g#a",
"..............g."};
