/* XPM */
static char * zoomin1[] = {
"16 16 10 1",
" 	c None",
".	c #585858",
"X	c #808080",
"o	c black",
"O	c #00c0c0",
"+	c #c05800",
"@	c #ff8000",
"#	c #ffa858",
"$	c #a0a0a0",
"%	c gray19",
"   ....X        ",
"  o.OOOoX       ",
" o.O+@#OoX      ",
"o.OO+@#OOoX     ",
"oX@@@@###oX     ",
"oX@@@@@@#oX     ",
"oX+++@++@oX     ",
"o.XO+@@O.oX     ",
" o.X+@@.oX$     ",
"  o.XXXo%.X$    ",
"   ooooo %.X$   ",
"          %.X$  ",
"           %.X$ ",
"            %.X$",
"             %.X",
"              % "};
