/* XPM */
static char*zoomout1[]={
"16 16 11 1",
"a c #808080",
"e c #ffa858",
"h c #a0a0a0",
"g c #c05800",
"d c #00ffff",
"b c #000000",
"f c #ff8000",
"i c #303030",
". c None",
"# c #585858",
"c c #00c0c0",
"...####a........",
"..b#cccba.......",
".b#cdddcba......",
"b#ccdddccba.....",
"baeeeeeeeba.....",
"baffffffeba.....",
"baggggggfba.....",
"b#acdddc#ba.....",
".b#accc#bah.....",
"..b#aaabi#ah....",
"...bbbbb.i#ah...",
"..........i#ah..",
"...........i#ah.",
"............i#ah",
".............i#a",
"..............i."};
